name D:\school\WTK\thesis\model\3dpredictsim\Results\MidTarsalJoint\Fal_s1_bCst_PF_none_ls148_MT_k1000_MTP_k10_ig24.mot
datacolumns 128
datarows 4
range 0.55634819 0.58972908
endheader
time	pelvis_tilt	pelvis_list	pelvis_rotation	pelvis_tx	pelvis_ty	pelvis_tz	hip_flexion_l	hip_adduction_l	hip_rotation_l	hip_flexion_r	hip_adduction_r	hip_rotation_r	knee_angle_l	knee_angle_r	ankle_angle_l	ankle_angle_r	subtalar_angle_l	subtalar_angle_r	mtj_angle_l	mtj_angle_r	mtp_angle_l	mtp_angle_r	lumbar_extension	lumbar_bending	lumbar_rotation	arm_flex_l	arm_add_l	arm_rot_l	arm_flex_r	arm_add_r	arm_rot_r	elbow_flex_l	elbow_flex_r	pro_sup_l	pro_sup_r	glut_med1_l/activation	glut_med2_l/activation	glut_med3_l/activation	glut_min1_l/activation	glut_min2_l/activation	glut_min3_l/activation	semimem_l/activation	semiten_l/activation	bifemlh_l/activation	bifemsh_l/activation	sar_l/activation	add_long_l/activation	add_brev_l/activation	add_mag1_l/activation	add_mag2_l/activation	add_mag3_l/activation	tfl_l/activation	pect_l/activation	grac_l/activation	glut_max1_l/activation	glut_max2_l/activation	glut_max3_l/activation	iliacus_l/activation	psoas_l/activation	quad_fem_l/activation	gem_l/activation	peri_l/activation	rect_fem_l/activation	vas_med_l/activation	vas_int_l/activation	vas_lat_l/activation	med_gas_l/activation	lat_gas_l/activation	soleus_l/activation	tib_post_l/activation	flex_dig_l/activation	flex_hal_l/activation	tib_ant_l/activation	per_brev_l/activation	per_long_l/activation	per_tert_l/activation	ext_dig_l/activation	ext_hal_l/activation	ercspn_l/activation	intobl_l/activation	extobl_l/activation	glut_med1_r/activation	glut_med2_r/activation	glut_med3_r/activation	glut_min1_r/activation	glut_min2_r/activation	glut_min3_r/activation	semimem_r/activation	semiten_r/activation	bifemlh_r/activation	bifemsh_r/activation	sar_r/activation	add_long_r/activation	add_brev_r/activation	add_mag1_r/activation	add_mag2_r/activation	add_mag3_r/activation	tfl_r/activation	pect_r/activation	grac_r/activation	glut_max1_r/activation	glut_max2_r/activation	glut_max3_r/activation	iliacus_r/activation	psoas_r/activation	quad_fem_r/activation	gem_r/activation	peri_r/activation	rect_fem_r/activation	vas_med_r/activation	vas_int_r/activation	vas_lat_r/activation	med_gas_r/activation	lat_gas_r/activation	soleus_r/activation	tib_post_r/activation	flex_dig_r/activation	flex_hal_r/activation	tib_ant_r/activation	per_brev_r/activation	per_long_r/activation	per_tert_r/activation	ext_dig_r/activation	ext_hal_r/activation	ercspn_r/activation	intobl_r/activation	extobl_r/activation	
          0.55634819	         -2.92984409	          2.07015055	         -5.07322450	          0.69543524	          0.91881950	          0.00248025	         29.54888760	          3.26513331	         -2.92471108	        -17.44490297	         -1.00960739	          6.54227531	        -11.94977851	         -5.86686563	          6.21499467	         -1.28080490	         -3.59845990	          8.31123749	          0.13134895	          2.73644254	         -0.24070117	         24.53464936	         -2.18274409	         -0.36482309	          1.97142007	         -5.22084046	        -13.47878834	          6.03126767	          5.05287617	        -13.45392044	         15.54297841	         16.91649903	         34.62542794	         86.51662706	         86.51662706	          0.05927244	          0.05927245	          0.05000006	          0.05927248	          0.05927248	          0.05927213	          0.13160612	          0.05927263	          0.22672010	          0.05000031	          0.05000009	          0.13876714	          0.29675251	          0.11402203	          0.14808247	          0.10456188	          0.05000007	          0.07085909	          0.11029954	          0.05000014	          0.05000018	          0.15263541	          0.05089018	          0.05000008	          0.24130080	          0.27384418	          0.12878693	          0.05000136	          0.12569709	          0.12390951	          0.11180519	          0.05201209	          0.05417134	          0.05584478	          0.05000001	          0.05000022	          0.05000010	          0.53237305	          0.25942215	          0.16307488	          0.20056119	          0.47072631	          0.22393573	          0.05927253	          0.11276063	          0.10139072	          0.25912494	          0.09874260	          0.07026499	          0.30553964	          0.19591027	          0.11292467	          0.05000053	          0.05000013	          0.05000006	          0.05927253	          0.10529143	          0.08567295	          0.06290506	          0.05000076	          0.05000131	          0.05000045	          0.32277803	          0.05944806	          0.05000087	          0.05000131	          0.05000108	          0.05000102	          0.40660090	          0.66333986	          0.05000014	          0.05000019	          0.05000039	          0.23116422	          0.05000333	          0.05000297	          0.05000188	          0.28207918	          0.38949746	          0.30302156	          0.30784985	          0.30711692	          0.40006895	          0.05000001	          0.05852451	          0.08971945	          0.05000012	          0.05000003	          0.05000012	          0.05000000	          0.05000005	          0.05000016	
          0.56747516	         -2.92577448	          2.17470932	         -5.37763793	          0.71216492	          0.91778889	          0.00226995	         28.97773567	          3.61625964	         -2.69587308	        -17.35257363	         -1.32499514	          6.34704784	        -12.27613052	         -7.71817243	          5.56611204	         -1.91122523	         -3.96015552	          9.25050746	          0.10318622	          2.42082750	         -0.20147590	         25.90246200	         -1.98379152	         -0.57749830	          2.03655919	         -6.08324309	        -13.47703839	          5.81395475	          4.80205393	        -13.45953822	         15.88764229	         16.51649852	         35.76947722	         86.51662706	         86.51662706	          0.05000000	          0.05000002	          0.10862673	          0.05000003	          0.05000003	          0.05000004	          0.11101797	          0.05000021	          0.19125248	          0.05000008	          0.06367862	          0.11705879	          0.27344494	          0.32765339	          0.21145674	          0.11713350	          0.05000027	          0.07026295	          0.12653893	          0.05146691	          0.08711606	          0.13059405	          0.05000007	          0.07026449	          0.48943329	          0.23100455	          0.10863978	          0.06980852	          0.13960504	          0.14339695	          0.12271356	          0.05000079	          0.06324096	          0.05000002	          0.05927261	          0.05010900	          0.05927283	          0.48470900	          0.30422568	          0.19920657	          0.16918583	          0.41542459	          0.18890369	          0.05000006	          0.09512058	          0.08552936	          0.21858797	          0.08329551	          0.05927290	          0.25774169	          0.16526248	          0.09525898	          0.05000121	          0.05000038	          0.05000072	          0.05000014	          0.08881994	          0.17997024	          0.05927243	          0.05927446	          0.05927305	          0.05927343	          0.27228334	          0.08047788	          0.05000220	          0.05000182	          0.05000143	          0.05000326	          0.34299308	          0.60893953	          0.05000087	          0.05927301	          0.05927267	          0.19500138	          0.16492514	          0.16488563	          0.14069603	          0.23795127	          0.32856525	          0.25875749	          0.27116591	          0.25907244	          0.33748350	          0.05000001	          0.05000004	          0.10186527	          0.05000004	          0.05000001	          0.05000008	          0.05603239	          0.06738712	          0.05646053	
          0.57860212	         -2.91780419	          2.28311994	         -5.65465097	          0.72918208	          0.91682527	          0.00207434	         28.27729044	          3.87830742	         -2.44113347	        -17.18682497	         -1.64028407	          6.13627530	        -12.84821330	         -9.68649276	          5.03688440	         -2.70857914	         -4.34884577	         10.14725082	          0.06536877	          2.04390182	         -0.30063026	         27.19077405	         -1.76469551	         -0.80103168	          2.09027803	         -6.97379461	        -13.48118488	          5.64633703	          4.47751601	        -13.46170547	         16.16600348	         16.17203102	         36.88871825	         86.51662706	         86.51662706	          0.24152378	          0.23832839	          0.30433189	          0.37346994	          0.24029732	          0.22551695	          0.10012217	          0.05000138	          0.16133345	          0.06544875	          0.05371705	          0.09874637	          0.23066780	          0.27639599	          0.17837695	          0.12116365	          0.05000034	          0.05927374	          0.10674392	          0.05000023	          0.11475987	          0.11016442	          0.05703255	          0.05927248	          0.41286733	          0.19486671	          0.21626023	          0.05888783	          0.11776555	          0.12096427	          0.10351654	          0.05000061	          0.05334774	          0.05277501	          0.05000015	          0.05000030	          0.05000057	          0.55035341	          0.29813328	          0.16804314	          0.37703676	          0.49979775	          0.15935228	          0.06299178	          0.11906452	          0.07214932	          0.31352113	          0.07026494	          0.05000039	          0.33449008	          0.13940918	          0.08035688	          0.05000089	          0.05000015	          0.05000011	          0.05000022	          0.07492532	          0.15181610	          0.05000055	          0.05000178	          0.05000098	          0.05000095	          0.28961029	          0.06788995	          0.05000071	          0.05000168	          0.05000095	          0.05000054	          0.28933598	          0.57920730	          0.05000014	          0.05000072	          0.05000026	          0.16449576	          0.13912466	          0.13909133	          0.11868589	          0.20072664	          0.27716515	          0.21827797	          0.22874529	          0.21854373	          0.28468832	          0.05000001	          0.08803252	          0.13048305	          0.05000009	          0.05000002	          0.05000009	          0.05031233	          0.05684521	          0.05000003	
          0.58972908	         -2.90807046	          2.38484396	         -5.89861239	          0.74628099	          0.91595204	          0.00185255	         27.51586029	          4.11901254	         -2.18637329	        -16.91474219	         -1.94602082	          5.92857558	        -13.37152800	        -11.80536140	          4.60486038	         -3.68978721	         -4.73785715	         11.00845208	          0.05131112	          1.64455768	         -0.29750775	         28.33614113	         -1.54779539	         -1.02422192	          2.13496331	         -7.84606196	        -13.48451419	          5.52863719	          4.11396322	        -13.46971323	         16.40317841	         15.85951194	         37.96354368	         86.51662706	         86.51662706	          0.32819479	          0.32876038	          0.35407017	          0.31504517	          0.20270718	          0.19023981	          0.08446088	          0.08114308	          0.13609482	          0.06105191	          0.05000038	          0.08329870	          0.19458261	          0.23315727	          0.15047581	          0.16238567	          0.05000016	          0.05000151	          0.09004600	          0.20733291	          0.17838189	          0.15717085	          0.05000004	          0.05000007	          0.34827920	          0.16438218	          0.18242909	          0.05000002	          0.09934319	          0.14965782	          0.08732333	          0.05000001	          0.05000003	          0.05000000	          0.05000000	          0.05000004	          0.05000005	          0.60738015	          0.29822109	          0.16186181	          0.56951015	          0.53238233	          0.27133840	          0.08503551	          0.10043830	          0.06086242	          0.28271381	          0.05927285	          0.05000006	          0.28216335	          0.11760032	          0.06778603	          0.05000104	          0.05000012	          0.05000009	          0.05000009	          0.06320425	          0.15369114	          0.06806623	          0.05000250	          0.05000226	          0.05000125	          0.26461062	          0.05928963	          0.05000066	          0.05000135	          0.05000090	          0.05000071	          0.24407285	          0.52941137	          0.05000014	          0.05000041	          0.05000008	          0.13876237	          0.13876083	          0.13876081	          0.13187454	          0.16932535	          0.23380598	          0.18413099	          0.19296084	          0.18435523	          0.24015227	          0.05000014	          0.07945809	          0.13772141	          0.05000017	          0.09520569	          0.05000024	          0.07752329	          0.05000000	          0.05000001	
